<svg xmlns="http://www.w3.org/2000/svg" xmlns:xlink="http://www.w3.org/1999/xlink" preserveAspectRatio="xMidYMid" width="79.76" height="96" viewBox="0 0 39.88 48">
  <defs>
    <style>
      .cls-1 {
        fill: #000;
        fill-rule: evenodd;
      }
    </style>
  </defs>
  <path d="M39.878,16.999 C39.878,25.625 37.773,30.791 27.106,32.677 C28.012,33.953 28.914,36.170 28.914,39.979 C28.914,44.133 28.873,47.014 28.873,47.014 C28.865,47.560 28.421,47.999 27.876,47.999 L14.003,47.999 C13.458,47.999 13.014,47.560 13.006,47.012 C13.006,47.012 12.985,45.463 12.972,42.998 L10.972,42.998 C6.912,42.998 5.492,40.172 4.239,37.677 C3.460,36.126 2.658,34.530 1.244,33.384 C0.768,33.043 0.461,32.837 0.451,32.830 C0.000,32.530 -0.128,31.922 0.162,31.463 C0.450,31.007 1.052,30.863 1.517,31.141 C1.852,31.342 2.161,31.559 2.449,31.788 C3.513,32.551 5.315,33.910 6.692,35.292 L6.986,35.589 C8.531,37.154 9.877,38.515 13.071,37.865 C13.338,35.282 14.073,33.656 14.805,32.639 C5.860,30.822 2.001,26.056 2.001,16.999 C2.001,14.449 2.782,11.959 4.267,9.767 C3.774,8.379 2.997,5.480 2.997,0.999 C2.997,0.733 3.103,0.479 3.289,0.292 C3.476,0.105 3.730,-0.001 3.994,-0.001 L3.995,-0.001 C4.165,-0.001 8.078,0.045 12.344,3.572 C17.605,1.512 24.274,1.512 29.535,3.572 C33.801,0.045 37.713,-0.001 37.884,-0.001 L37.885,-0.001 C38.148,-0.001 38.402,0.105 38.589,0.292 C38.776,0.479 38.881,0.733 38.881,0.999 C38.881,5.480 38.105,8.379 37.612,9.767 C39.097,11.959 39.878,14.449 39.878,16.999 ZM30.379,5.477 C30.089,5.733 29.682,5.800 29.329,5.647 C24.277,3.491 17.602,3.491 12.550,5.647 C12.198,5.800 11.790,5.733 11.500,5.477 C8.878,3.161 6.360,2.387 5.009,2.128 C5.146,6.366 6.024,8.835 6.309,9.529 C6.441,9.852 6.397,10.222 6.189,10.502 C4.733,12.484 3.994,14.670 3.994,16.999 C3.994,25.718 7.667,29.647 17.094,31.008 C17.140,31.015 17.176,31.041 17.220,31.053 C17.280,31.070 17.338,31.087 17.394,31.116 C17.456,31.147 17.509,31.185 17.562,31.228 C17.609,31.265 17.653,31.302 17.694,31.348 C17.741,31.402 17.775,31.460 17.810,31.523 C17.829,31.558 17.860,31.583 17.875,31.621 C17.883,31.641 17.880,31.662 17.887,31.683 C17.908,31.745 17.916,31.809 17.924,31.875 C17.933,31.943 17.941,32.008 17.936,32.075 C17.934,32.098 17.943,32.119 17.939,32.142 C17.933,32.186 17.910,32.222 17.898,32.264 C17.882,32.320 17.868,32.374 17.843,32.427 C17.814,32.488 17.776,32.540 17.735,32.594 C17.702,32.638 17.672,32.682 17.632,32.721 C17.578,32.772 17.516,32.808 17.453,32.846 C17.417,32.868 17.391,32.900 17.351,32.917 C17.271,32.957 15.299,34.018 15.000,38.733 C14.972,39.161 14.676,39.523 14.265,39.635 C10.441,40.667 8.298,39.501 6.709,38.098 C7.749,39.966 8.750,40.999 10.972,40.999 L13.965,40.999 C14.514,40.999 14.960,41.444 14.962,41.995 C14.968,43.739 14.979,45.133 14.988,45.999 L26.891,45.999 C26.903,44.820 26.920,42.668 26.920,39.979 C26.920,34.115 24.551,32.927 24.527,32.915 C24.494,32.899 24.472,32.870 24.441,32.851 C24.368,32.809 24.301,32.762 24.241,32.703 C24.222,32.684 24.206,32.664 24.188,32.643 C24.117,32.562 24.062,32.473 24.020,32.371 C24.015,32.359 24.013,32.348 24.009,32.337 C23.983,32.267 23.947,32.202 23.938,32.124 C23.932,32.080 23.947,32.040 23.947,31.996 C23.947,31.986 23.949,31.976 23.949,31.966 C23.954,31.840 23.978,31.722 24.025,31.611 C24.027,31.609 24.026,31.606 24.027,31.603 C24.029,31.599 24.033,31.596 24.035,31.591 C24.085,31.483 24.149,31.388 24.232,31.304 C24.250,31.285 24.270,31.271 24.289,31.254 C24.358,31.194 24.431,31.143 24.515,31.103 C24.565,31.080 24.615,31.067 24.668,31.052 C24.714,31.039 24.753,31.013 24.802,31.007 C35.996,29.592 37.885,25.542 37.885,16.999 C37.885,14.670 37.146,12.484 35.690,10.502 C35.482,10.222 35.437,9.852 35.570,9.529 C35.855,8.835 36.733,6.366 36.869,2.128 C35.521,2.385 33.002,3.160 30.379,5.477 Z" class="cls-1"/>
</svg>
