<svg xmlns="http://www.w3.org/2000/svg" xmlns:xlink="http://www.w3.org/1999/xlink" preserveAspectRatio="xMidYMid" width="95.56" height="76" viewBox="0 0 47.78 38">
  <defs>
    <style>
      .cls-1 {
        fill: #000;
        fill-rule: evenodd;
      }
    </style>
  </defs>
  <path d="M31.857,1.999 C34.442,1.999 37.225,3.016 38.870,4.691 C40.913,4.300 42.842,3.591 44.574,2.606 C43.905,4.610 42.478,6.292 40.623,7.356 C42.439,7.146 44.177,6.687 45.787,6.001 C44.580,7.722 43.058,9.236 41.303,10.447 C41.316,10.814 41.326,11.186 41.326,11.555 C41.326,22.905 32.451,35.998 15.913,35.998 C10.432,35.998 5.940,34.565 1.966,32.130 C2.668,32.214 3.382,32.253 4.106,32.253 C8.320,32.253 12.197,30.880 15.276,28.574 C11.339,28.508 8.018,26.022 6.878,22.612 C7.425,22.713 7.989,22.767 8.571,22.767 C9.387,22.767 10.183,22.663 10.936,22.466 C6.824,21.678 3.871,18.188 3.871,14.025 C3.871,13.988 3.871,13.952 3.871,13.915 C5.083,14.559 6.467,14.946 7.944,14.991 C5.531,13.449 3.945,10.824 3.945,7.844 C3.945,6.269 4.387,4.793 5.161,3.529 C9.593,8.720 16.074,12.159 23.548,12.521 C23.392,11.894 23.313,11.231 23.313,10.564 C23.313,5.819 26.888,1.999 31.857,1.999 M45.787,6.001 L45.792,6.001 M31.857,-0.001 C26.037,-0.001 21.458,4.503 21.323,10.300 C15.598,9.479 10.462,6.663 6.675,2.228 C6.295,1.782 5.740,1.530 5.161,1.530 C5.110,1.530 5.057,1.531 5.005,1.535 C4.370,1.585 3.798,1.936 3.464,2.482 C2.474,4.095 1.952,5.949 1.952,7.844 C1.952,9.358 2.285,10.827 2.905,12.167 C2.884,12.176 2.864,12.190 2.843,12.202 C2.244,12.563 1.878,13.214 1.878,13.915 L1.878,14.025 C1.878,16.974 3.115,19.689 5.141,21.632 C4.867,22.120 4.807,22.706 4.988,23.249 C5.851,25.829 7.679,27.920 10.016,29.198 C8.157,29.894 6.165,30.252 4.106,30.252 C3.448,30.252 2.806,30.215 2.201,30.143 C2.122,30.134 2.042,30.129 1.965,30.129 C1.125,30.129 0.363,30.663 0.082,31.476 C-0.224,32.364 0.127,33.347 0.927,33.837 C5.497,36.638 10.399,37.999 15.913,37.999 C33.068,37.999 43.319,24.553 43.319,11.555 C43.319,11.519 43.319,11.483 43.319,11.447 C44.875,10.243 46.235,8.824 47.372,7.214 C47.629,6.878 47.783,6.456 47.783,6.001 C47.783,5.023 47.085,4.209 46.163,4.034 C46.273,3.774 46.374,3.510 46.464,3.242 C46.726,2.457 46.479,1.591 45.842,1.064 C45.477,0.761 45.027,0.606 44.574,0.606 C44.237,0.606 43.899,0.692 43.592,0.866 C42.304,1.599 40.907,2.153 39.432,2.521 C37.439,0.946 34.639,-0.001 31.857,-0.001 L31.857,-0.001 Z" class="cls-1"/>
</svg>
