<svg xmlns="http://www.w3.org/2000/svg" xmlns:xlink="http://www.w3.org/1999/xlink" preserveAspectRatio="xMidYMid" width="96.44" height="90" viewBox="0 0 48.22 45">
  <defs>
    <style>
      .cls-1 {
        fill: #000;
        fill-rule: evenodd;
      }
    </style>
  </defs>
  <path d="M41.703,15.085 C41.711,15.085 41.721,15.085 41.730,15.085 C43.355,15.094 44.972,15.833 46.284,17.167 C48.604,19.525 48.888,23.335 46.892,25.320 C46.304,25.905 45.819,26.300 45.035,26.442 C45.143,27.118 45.218,27.801 45.218,28.499 C45.218,37.597 35.750,44.999 24.114,44.999 C12.478,44.999 3.011,37.597 3.011,28.499 C3.011,27.775 3.092,27.067 3.208,26.368 C2.595,26.215 1.954,25.933 1.337,25.321 C0.381,24.370 -0.102,22.926 0.013,21.357 C0.128,19.780 0.817,18.289 1.953,17.159 C4.448,14.674 7.600,14.380 9.903,16.347 C13.489,13.788 18.192,12.169 23.377,12.028 L26.119,3.751 C26.269,3.303 26.727,3.010 27.188,3.072 L34.432,3.895 C35.127,1.648 37.208,-0.001 39.691,-0.001 C42.738,-0.001 45.218,2.467 45.218,5.499 C45.218,8.531 42.738,10.999 39.691,10.999 C36.775,10.999 34.404,8.733 34.203,5.882 L27.773,5.151 L25.486,12.053 C30.420,12.303 34.889,13.888 38.328,16.341 C39.241,15.550 40.442,15.085 41.703,15.085 ZM39.691,8.999 C41.630,8.999 43.208,7.429 43.208,5.499 C43.208,3.569 41.630,1.999 39.691,1.999 C37.751,1.999 36.174,3.569 36.174,5.499 C36.174,7.429 37.751,8.999 39.691,8.999 ZM45.471,23.906 C46.553,22.830 46.516,20.263 44.847,18.565 C43.652,17.350 42.487,17.089 41.719,17.084 C41.714,17.084 41.708,17.084 41.703,17.084 C41.054,17.084 40.431,17.276 39.923,17.616 C42.121,19.560 43.734,21.908 44.566,24.502 C44.884,24.475 45.027,24.347 45.471,23.906 ZM3.374,18.573 C2.591,19.352 2.096,20.420 2.018,21.502 C1.946,22.475 2.223,23.374 2.758,23.906 C3.030,24.176 3.311,24.333 3.687,24.430 C4.523,21.871 6.122,19.554 8.292,17.631 C6.589,16.449 4.671,17.283 3.374,18.573 ZM24.114,13.999 C13.586,13.999 5.021,20.504 5.021,28.499 C5.021,36.494 13.586,42.998 24.114,42.998 C34.643,42.998 43.208,36.494 43.208,28.499 C43.208,20.504 34.643,13.999 24.114,13.999 ZM32.154,28.998 C30.489,28.998 29.139,27.656 29.139,25.999 C29.139,24.341 30.489,22.999 32.154,22.999 C33.818,22.999 35.169,24.341 35.169,25.999 C35.169,27.656 33.818,28.998 32.154,28.998 ZM32.531,34.046 C32.845,34.501 32.729,35.126 32.271,35.437 C29.819,37.113 26.958,37.999 23.997,37.999 C21.037,37.999 18.174,37.106 15.718,35.419 C15.261,35.104 15.147,34.481 15.462,34.028 C15.777,33.572 16.402,33.459 16.860,33.772 C18.979,35.229 21.446,35.998 23.997,35.998 C26.550,35.998 29.018,35.234 31.133,33.789 C31.591,33.477 32.218,33.593 32.531,34.046 ZM16.075,28.998 C14.411,28.998 13.060,27.656 13.060,25.999 C13.060,24.341 14.411,22.999 16.075,22.999 C17.739,22.999 19.090,24.341 19.090,25.999 C19.090,27.656 17.739,28.998 16.075,28.998 Z" class="cls-1"/>
</svg>
