<?xml version="1.0" encoding="UTF-8"?>
<svg width="48px" height="28px" viewBox="0 0 48 28" version="1.1" xmlns="http://www.w3.org/2000/svg" xmlns:xlink="http://www.w3.org/1999/xlink">
    <!-- Generator: Sketch 45.1 (43504) - http://www.bohemiancoding.com/sketch -->
    <title>Shape</title>
    <desc>Created with Sketch.</desc>
    <defs></defs>
    <g id="Page-1" stroke="none" stroke-width="1" fill="none" fill-rule="evenodd">
        <g id="icon-arrow-right-2" fill="#2C8FEA">
            <path d="M47.87,13.499 C47.883,13.524 47.906,13.543 47.917,13.569 C47.97,13.69 48,13.823 48,13.963 C48,14.103 47.97,14.236 47.917,14.357 C47.908,14.379 47.888,14.395 47.877,14.417 C47.826,14.513 47.769,14.604 47.691,14.679 C47.687,14.683 47.685,14.689 47.681,14.693 L33.681,27.646 C33.488,27.825 33.244,27.913 33,27.913 C32.731,27.913 32.464,27.805 32.268,27.594 C31.892,27.191 31.915,26.56 32.319,26.186 L44.453,14.959 L1,14.959 C0.447,14.959 0,14.513 0,13.963 C0,13.413 0.447,12.966 1,12.966 L44.453,12.966 L32.319,1.74 C31.915,1.365 31.892,0.735 32.268,0.332 C32.642,-0.072 33.276,-0.095 33.681,0.28 L47.681,13.232 C47.686,13.237 47.687,13.243 47.692,13.248 C47.766,13.32 47.821,13.407 47.87,13.499 Z" id="Shape"></path>
        </g>
    </g>
</svg>