<?xml version="1.0" encoding="UTF-8"?>
<svg width="508px" height="499px" viewBox="0 0 508 499" version="1.1" xmlns="http://www.w3.org/2000/svg" xmlns:xlink="http://www.w3.org/1999/xlink">
    <!-- Generator: Sketch 45.2 (43514) - http://www.bohemiancoding.com/sketch -->
    <title>Group</title>
    <desc>Created with Sketch.</desc>
    <defs></defs>
    <g id="Page-1" stroke="none" stroke-width="1" fill="none" fill-rule="evenodd">
        <g id="Group" transform="translate(-57.000000, -61.000000)" stroke="#FFFFFF" stroke-width="10">
            <path d="M247.47822,119.548564 C219.042987,104.110214 184.705295,104.205932 156.356574,119.802571 C110.387426,145.093457 93.6243815,202.861127 118.915267,248.830276 C137.204571,282.07323 146.169651,302.201326 146.169651,311.040778 C146.169651,320.12858 137.985192,340.178888 121.37404,372.719173 C107.526547,399.84561 107.524519,431.966662 121.368587,459.094848 C145.217621,505.828295 202.436027,524.379777 249.169473,500.530743 C281.703262,483.928085 301.765287,475.746406 310.875279,475.746406 C320.112689,475.746406 341.022695,484.637517 375.285601,502.719938 C403.252702,517.479716 436.730743,517.355745 464.587766,502.389247 C510.806627,477.557646 528.144426,419.959867 503.312825,373.741006 C484.630903,338.968494 475.580906,318.847205 475.580906,311.040778 C475.580906,303.294312 484.03618,283.787099 501.442444,250.370337 C515.570184,223.247724 515.777202,190.982462 501.998652,163.6808 C478.359542,116.840818 421.224949,98.0327945 374.384967,121.671904 C341.711356,138.161558 320.959119,146.335151 310.875279,146.335151 C301.140798,146.335151 280.507387,137.481101 247.47822,119.548564 Z" id="Rectangle" transform="translate(310.888416, 310.869838) rotate(-45.000000) translate(-310.888416, -310.869838) "></path>
            <rect id="Rectangle-Copy" transform="translate(311.000000, 311.000000) rotate(-45.000000) translate(-311.000000, -311.000000) " x="96.7589643" y="96.7589643" width="428.482071" height="428.482071" rx="214.241036"></rect>
            <path d="M310.917473,440.183594 C427.287215,440.183594 127.71707,181 310.999414,181 C494.281759,181 194.54773,440.183594 310.917473,440.183594 Z" id="Path-2"></path>
            <path d="M311.056455,181 C194.686712,181 494.256858,440.183594 310.974513,440.183594 C127.692169,440.183594 427.426197,181 311.056455,181 Z" id="Path-2-Copy"></path>
        </g>
    </g>
</svg>