<?xml version="1.0" encoding="UTF-8"?>
<svg width="491px" height="491px" viewBox="0 0 491 491" version="1.1" xmlns="http://www.w3.org/2000/svg" xmlns:xlink="http://www.w3.org/1999/xlink">
    <!-- Generator: Sketch 45.2 (43514) - http://www.bohemiancoding.com/sketch -->
    <title>Group</title>
    <desc>Created with Sketch.</desc>
    <defs></defs>
    <g id="Page-1" stroke="none" stroke-width="1" fill="none" fill-rule="evenodd">
        <g id="Group" transform="translate(-67.000000, -63.000000)" stroke="#FFFFFF" stroke-width="10">
            <path d="M219.986233,111.617842 C212.374369,110.818134 204.693754,110.941228 197.111426,111.984448 C145.13403,119.135796 108.795338,167.069114 115.946686,219.04651 C122.074458,263.584361 125.136169,292.534097 125.136169,306.177149 C125.136169,319.901441 122.033502,350.50314 115.821558,398.280494 C114.635473,407.402918 114.780678,416.649251 116.252626,425.729934 C124.64778,477.520984 173.438338,512.700308 225.229388,504.305155 C269.925925,497.059998 298.868798,493.440993 312.400013,493.440993 C325.974836,493.440993 355.062906,497.083586 400.008009,504.376085 C409.080868,505.848188 418.319343,505.9958 427.434601,504.814305 C479.466389,498.070086 516.179219,450.422718 509.434999,398.39093 C502.922547,348.14722 499.676553,317.553277 499.676553,306.164454 C499.676553,294.823551 502.888414,265.900465 509.330425,218.968835 C510.370413,211.392265 510.491725,203.717835 509.691725,196.112181 C504.203266,143.932987 457.454395,106.082669 405.275201,111.571128 C358.819716,116.457541 327.925425,118.90061 312.412709,118.90061 C296.949253,118.90061 266.199991,116.473098 219.986233,111.617842 Z" id="Rectangle" transform="translate(312.631416, 308.322117) rotate(-45.000000) translate(-312.631416, -308.322117) "></path>
            <rect id="Rectangle-Copy" transform="translate(311.000000, 311.000000) rotate(-45.000000) translate(-311.000000, -311.000000) " x="96.7589643" y="96.7589643" width="428.482071" height="428.482071" rx="214.241036"></rect>
            <path d="M151.395167,310.519036 C151.395167,432.364415 470.578761,118.698361 470.578761,310.604833 C470.578761,502.511305 151.395167,188.673657 151.395167,310.519036 Z" id="Path-2" transform="translate(310.986964, 310.591797) rotate(-90.000000) translate(-310.986964, -310.591797) "></path>
            <path d="M151.395167,310.519036 C151.395167,432.364415 470.578761,118.698361 470.578761,310.604833 C470.578761,502.511305 151.395167,188.673657 151.395167,310.519036 Z" id="Path-2-Copy" transform="translate(310.986964, 310.591797) rotate(-270.000000) translate(-310.986964, -310.591797) "></path>
        </g>
    </g>
</svg>