<?xml version="1.0" encoding="UTF-8"?>
<svg width="504px" height="495px" viewBox="0 0 504 495" version="1.1" xmlns="http://www.w3.org/2000/svg" xmlns:xlink="http://www.w3.org/1999/xlink">
    <!-- Generator: Sketch 45.2 (43514) - http://www.bohemiancoding.com/sketch -->
    <title>Group</title>
    <desc>Created with Sketch.</desc>
    <defs></defs>
    <g id="Page-1" stroke="none" stroke-width="1" fill="none" fill-rule="evenodd">
        <g id="Group" transform="translate(-60.000000, -63.000000)" stroke="#FFFFFF" stroke-width="10">
            <path d="M231.528517,109.261427 C213.193896,103.770824 193.62838,103.946141 175.395093,109.764412 C125.411188,125.714356 97.8212108,179.164302 113.771155,229.148207 C124.424251,262.53286 129.738944,284.309235 129.738944,295.124883 C129.738944,308.6645 123.91625,340.694602 112.234024,391.840642 C109.053766,405.76415 109.053785,420.225533 112.234078,434.149033 C123.917283,485.298756 174.853435,517.29269 226.003158,505.609485 C277.117922,493.934266 309.152521,488.114781 322.728842,488.114781 C333.756295,488.114781 356.119953,493.612254 390.481571,504.633387 C408.827417,510.517627 428.528769,510.684724 446.971783,505.112508 C497.196543,489.938026 525.610408,436.921465 510.435926,386.696705 C495.044714,335.754608 487.43447,305.656061 487.43447,295.124883 C487.43447,286.739004 492.791521,267.605683 503.608433,236.708661 C510.616178,216.691997 510.72458,194.906048 503.916374,174.820639 C487.073293,125.130579 433.137525,98.5028414 383.447465,115.345923 C353.806003,125.393275 333.743236,130.419255 322.728842,130.419255 C308.839606,130.419255 278.672982,123.37961 231.528517,109.261427 Z" id="Rectangle" transform="translate(311.885247, 307.220406) rotate(-45.000000) translate(-311.885247, -307.220406) "></path>
            <rect id="Rectangle-Copy" transform="translate(311.000000, 311.000000) rotate(-45.000000) translate(-311.000000, -311.000000) " x="96.7589643" y="96.7589643" width="428.482071" height="428.482071" rx="214.241036"></rect>
            <path d="M310.916383,450.183594 C429.111338,450.183594 124.842556,171 310.999609,171 C497.156663,171 192.721428,450.183594 310.916383,450.183594 Z" id="Path-2"></path>
            <path d="M311.057544,171 C192.86259,171 497.131372,450.183594 310.974318,450.183594 C124.817264,450.183594 429.252499,171 311.057544,171 Z" id="Path-2-Copy"></path>
        </g>
    </g>
</svg>