<?xml version="1.0" encoding="UTF-8"?>
<svg width="504px" height="495px" viewBox="0 0 504 495" version="1.1" xmlns="http://www.w3.org/2000/svg" xmlns:xlink="http://www.w3.org/1999/xlink">
    <!-- Generator: Sketch 45.2 (43514) - http://www.bohemiancoding.com/sketch -->
    <title>Group</title>
    <desc>Created with Sketch.</desc>
    <defs></defs>
    <g id="Page-1" stroke="none" stroke-width="1" fill="none" fill-rule="evenodd">
        <g id="logo-group-b" transform="translate(-52.000000, -55.000000)" stroke-width="10" stroke="#FFFFFF">
            <g id="Group">
                <path d="M223.528514,101.261418 C205.193893,95.7708151 185.628377,95.9461321 167.39509,101.764403 C117.411185,117.714347 89.8212077,171.164293 105.771152,221.148198 C116.424248,254.532851 121.738941,276.309226 121.738941,287.124874 C121.738941,300.664491 115.916247,332.694593 104.234021,383.840633 C101.053763,397.764141 101.053782,412.225524 104.234075,426.149024 C115.91728,477.298747 166.853432,509.292681 218.003155,497.609476 C269.117919,485.934257 301.152518,480.114772 314.728839,480.114772 C325.756292,480.114772 348.11995,485.612245 382.481568,496.633378 C400.827414,502.517618 420.528766,502.684715 438.97178,497.112499 C489.19654,481.938017 517.610405,428.921456 502.435923,378.696696 C487.044711,327.754599 479.434467,297.656052 479.434467,287.124874 C479.434467,278.738995 484.791518,259.605674 495.60843,228.708652 C502.616175,208.691988 502.724577,186.906039 495.916371,166.82063 C479.07329,117.13057 425.137522,90.5028325 375.447462,107.345914 C345.806,117.393266 325.743233,122.419246 314.728839,122.419246 C300.839603,122.419246 270.672979,115.379601 223.528514,101.261418 Z" id="Rectangle" transform="translate(303.885256, 299.220398) rotate(-45.000000) translate(-303.885256, -299.220398) "></path>
                <rect id="Rectangle-Copy" transform="translate(303.000000, 303.000000) rotate(-45.000000) translate(-303.000000, -303.000000) " x="88.7589642" y="88.7589645" width="428.482071" height="428.482071" rx="214.241036"></rect>
            </g>
        </g>
    </g>
</svg>